<svg width="170" height="100" viewBox="0 0 170 100" fill="none" xmlns="http://www.w3.org/2000/svg">
<rect width="170" height="100" fill="#1E1E1E"/>
<path d="M65.9159 55.2245V46.3042H67.9774C69.5246 46.3042 70.8428 45.751 71.9319 44.6446C73.021 43.5382 73.5656 42.207 73.5656 40.6511V37.2153C73.5656 35.5989 73.0859 34.2677 72.1264 33.2218C71.0978 32.1241 69.7148 31.5752 67.9774 31.5752H62.3633V55.2245H65.9159ZM68.0682 42.7775H65.9159V35.2185H68.0682C68.6905 35.2185 69.1854 35.4065 69.5527 35.7825C69.9201 36.1586 70.1038 36.6577 70.1038 37.2801V40.7289C70.1038 41.2908 69.9071 41.7727 69.5138 42.1746C69.1205 42.5765 68.6387 42.7775 68.0682 42.7775ZM79.2289 55.2245L80.0975 49.7919H83.8187L84.6615 55.2245H88.3956L84.441 31.5752H79.5271L75.5207 55.2245H79.2289ZM83.2871 46.3171H80.6421L81.9646 36.9948L83.2871 46.3171ZM96.3537 55.2245V46.3042H98.4153C99.9625 46.3042 101.281 45.751 102.37 44.6446C103.459 43.5382 104.003 42.207 104.003 40.6511V37.2153C104.003 35.5989 103.524 34.2677 102.564 33.2218C101.536 32.1241 100.153 31.5752 98.4153 31.5752H92.8011V55.2245H96.3537ZM98.506 42.7775H96.3537V35.2185H98.506C99.1284 35.2185 99.6232 35.4065 99.9906 35.7825C100.358 36.1586 100.542 36.6577 100.542 37.2801V40.7289C100.542 41.2908 100.345 41.7727 99.9517 42.1746C99.5584 42.5765 99.0765 42.7775 98.506 42.7775ZM118.393 55.2245V51.659H111.806V45.1891H116.616V41.6106H111.806V35.1407H118.393V31.5752H108.253V55.2245H118.393ZM125.806 55.2245V46.3042H127.855C127.967 46.3042 128.075 46.2998 128.179 46.2912L130.357 55.2245H134.208L131.563 44.8909C132.834 43.7413 133.469 42.328 133.469 40.6511V37.2153C133.469 35.5124 133.058 34.1813 132.237 33.2218C131.312 32.1241 129.856 31.5752 127.868 31.5752H122.254V55.2245H125.806ZM127.959 42.7775H125.806V35.2185H127.959C129.316 35.2185 129.994 35.9057 129.994 37.2801V40.7289C129.994 41.2908 129.797 41.7727 129.404 42.1746C129.011 42.5765 128.529 42.7775 127.959 42.7775ZM148.856 55.2245V51.6849H142.296L148.856 35.1407V31.5752H138.458V35.1407H145.032L138.458 51.6849V55.2245H148.856Z" fill="white"/>
<path d="M64.9962 67.3368V66.8169H62.4219V61.618H61.793V67.3368H64.9962ZM67.3692 67.471C67.7829 67.471 68.1407 67.3885 68.4426 67.2236C68.7444 67.0587 68.9876 66.8309 69.1721 66.5402L68.7193 66.2383C68.5851 66.4619 68.4076 66.6366 68.1868 66.7624C67.966 66.8882 67.6879 66.9511 67.3525 66.9511C66.9388 66.9511 66.6118 66.8085 66.3714 66.5234C66.131 66.2383 65.9996 65.8945 65.9773 65.492H69.2056C69.2112 65.4361 69.214 65.3551 69.214 65.2488C69.214 64.8799 69.133 64.5459 68.9708 64.2468C68.8087 63.9477 68.5851 63.7115 68.3 63.5382C68.0149 63.3649 67.6963 63.2783 67.3441 63.2783C66.9695 63.2783 66.6355 63.3677 66.342 63.5466C66.0485 63.7255 65.8193 63.9743 65.6544 64.2929C65.4895 64.6116 65.4071 64.9721 65.4071 65.3746C65.4071 65.7771 65.4909 66.1377 65.6586 66.4563C65.8263 66.775 66.0583 67.0237 66.3546 67.2026C66.6509 67.3815 66.9891 67.471 67.3692 67.471ZM68.6438 65.0224H66.0108C66.0723 64.6702 66.219 64.3782 66.451 64.1462C66.683 63.9142 66.9807 63.7982 67.3441 63.7982C67.7186 63.7982 68.0149 63.9002 68.2329 64.1042C68.4509 64.3083 68.5879 64.6143 68.6438 65.0224ZM71.7632 67.471C72.0427 67.471 72.2998 67.4081 72.5346 67.2823C72.7694 67.1565 72.9679 66.9818 73.13 66.7582V67.3368H73.7002V63.4124H73.13V63.9994C72.9679 63.7702 72.768 63.5927 72.5304 63.467C72.2928 63.3412 72.0315 63.2783 71.7464 63.2783C71.3718 63.2783 71.0378 63.3677 70.7443 63.5466C70.4509 63.7255 70.2217 63.9729 70.0567 64.2887C69.8918 64.6046 69.8094 64.9637 69.8094 65.3662C69.8094 65.7743 69.8932 66.1377 70.0609 66.4563C70.2286 66.775 70.4606 67.0237 70.7569 67.2026C71.0532 67.3815 71.3886 67.471 71.7632 67.471ZM71.7464 66.9511C71.4837 66.9511 71.2489 66.884 71.042 66.7498C70.8352 66.6157 70.6731 66.4284 70.5557 66.188C70.4383 65.9476 70.3796 65.6737 70.3796 65.3662C70.3796 65.0644 70.4383 64.7946 70.5557 64.557C70.6731 64.3195 70.8352 64.1336 71.042 63.9994C71.2489 63.8653 71.4837 63.7982 71.7464 63.7982C72.0147 63.7982 72.2537 63.8653 72.4633 63.9994C72.673 64.1336 72.8365 64.3209 72.9539 64.5612C73.0713 64.8016 73.13 65.0727 73.13 65.3746C73.13 65.6765 73.0713 65.9476 72.9539 66.188C72.8365 66.4284 72.673 66.6157 72.4633 66.7498C72.2537 66.884 72.0147 66.9511 71.7464 66.9511ZM76.4673 67.471C76.7469 67.471 77.004 67.4081 77.2388 67.2823C77.4736 67.1565 77.672 66.9818 77.8342 66.7582V67.3368H78.4044V61.249H77.8342V63.9994C77.672 63.7702 77.4722 63.5927 77.2346 63.467C76.997 63.3412 76.7357 63.2783 76.4506 63.2783C76.076 63.2783 75.742 63.3677 75.4485 63.5466C75.155 63.7255 74.9258 63.9729 74.7609 64.2887C74.596 64.6046 74.5136 64.9637 74.5136 65.3662C74.5136 65.7743 74.5974 66.1377 74.7651 66.4563C74.9328 66.775 75.1648 67.0237 75.4611 67.2026C75.7574 67.3815 76.0928 67.471 76.4673 67.471ZM76.4506 66.9511C76.1878 66.9511 75.953 66.884 75.7462 66.7498C75.5394 66.6157 75.3773 66.4284 75.2599 66.188C75.1425 65.9476 75.0838 65.6737 75.0838 65.3662C75.0838 65.0644 75.1425 64.7946 75.2599 64.557C75.3773 64.3195 75.5394 64.1336 75.7462 63.9994C75.953 63.8653 76.1878 63.7982 76.4506 63.7982C76.7189 63.7982 76.9579 63.8653 77.1675 63.9994C77.3772 64.1336 77.5407 64.3209 77.6581 64.5612C77.7755 64.8016 77.8342 65.0727 77.8342 65.3746C77.8342 65.6765 77.7755 65.9476 77.6581 66.188C77.5407 66.4284 77.3772 66.6157 77.1675 66.7498C76.9579 66.884 76.7189 66.9511 76.4506 66.9511ZM80.0563 62.6494C80.1793 62.6494 80.2855 62.6047 80.3749 62.5152C80.4644 62.4258 80.5091 62.3196 80.5091 62.1966C80.5091 62.068 80.4644 61.9604 80.3749 61.8737C80.2855 61.7871 80.1793 61.7438 80.0563 61.7438C79.9277 61.7438 79.8201 61.7871 79.7334 61.8737C79.6468 61.9604 79.6035 62.0652 79.6035 62.1882C79.6035 62.3168 79.6468 62.4258 79.7334 62.5152C79.8201 62.6047 79.9277 62.6494 80.0563 62.6494ZM80.3414 67.3368V63.4124H79.7712V67.3368H80.3414ZM82.2784 67.3368V65.3746C82.2784 64.8939 82.379 64.5109 82.5803 64.2258C82.7815 63.9407 83.0834 63.7982 83.4859 63.7982C84.1791 63.7982 84.5257 64.1867 84.5257 64.9637V67.3368H85.0959V64.7122C85.0959 64.4159 85.0274 64.1587 84.8904 63.9407C84.7535 63.7227 84.569 63.5578 84.337 63.446C84.105 63.3342 83.8521 63.2783 83.5781 63.2783C83.2874 63.2783 83.0317 63.3468 82.8109 63.4837C82.5901 63.6207 82.4126 63.8149 82.2784 64.0665V63.4124H81.7082V67.3368H82.2784ZM88.1314 69.0139C88.4668 69.0139 88.7659 68.9356 89.0286 68.7791C89.2914 68.6226 89.4954 68.4059 89.6407 68.1292C89.7861 67.8525 89.8588 67.538 89.8588 67.1859V63.4124H89.2886V63.9994C89.1264 63.7702 88.9266 63.5927 88.689 63.467C88.4514 63.3412 88.1901 63.2783 87.905 63.2783C87.5304 63.2783 87.1964 63.3677 86.9029 63.5466C86.6094 63.7255 86.3802 63.9729 86.2153 64.2887C86.0504 64.6046 85.968 64.9637 85.968 65.3662C85.968 65.7743 86.0518 66.1377 86.2195 66.4563C86.3872 66.775 86.6192 67.0237 86.9155 67.2026C87.2118 67.3815 87.5472 67.471 87.9217 67.471C88.2013 67.471 88.4584 67.4081 88.6932 67.2823C88.928 67.1565 89.1264 66.9818 89.2886 66.7582V67.1859C89.2886 67.566 89.181 67.879 88.9657 68.125C88.7505 68.371 88.4724 68.494 88.1314 68.494H86.5046V69.0139H88.1314ZM87.905 66.9511C87.6422 66.9511 87.4074 66.884 87.2006 66.7498C86.9938 66.6157 86.8317 66.4284 86.7143 66.188C86.5969 65.9476 86.5382 65.6737 86.5382 65.3662C86.5382 65.0644 86.5969 64.7946 86.7143 64.557C86.8317 64.3195 86.9938 64.1336 87.2006 63.9994C87.4074 63.8653 87.6422 63.7982 87.905 63.7982C88.1733 63.7982 88.4123 63.8653 88.6219 63.9994C88.8316 64.1336 88.9951 64.3209 89.1125 64.5612C89.2299 64.8016 89.2886 65.0727 89.2886 65.3746C89.2886 65.6765 89.2299 65.9476 89.1125 66.188C88.9951 66.4284 88.8316 66.6157 88.6219 66.7498C88.4123 66.884 88.1733 66.9511 87.905 66.9511ZM93.5567 67.3368V65.1482H94.7726C95.3037 65.1482 95.7299 64.9917 96.0514 64.6786C96.3728 64.3656 96.5335 63.9351 96.5335 63.3873C96.5335 62.8339 96.3798 62.4006 96.0723 62.0876C95.7649 61.7745 95.354 61.618 94.8397 61.618H92.9278V67.3368H93.5567ZM94.7558 64.6283H93.5567V62.1379H94.7558C95.1304 62.1379 95.4155 62.2441 95.6111 62.4565C95.8068 62.6689 95.9046 62.9792 95.9046 63.3873C95.9046 63.7954 95.8068 64.1042 95.6111 64.3139C95.4155 64.5235 95.1304 64.6283 94.7558 64.6283ZM98.982 67.471C99.2615 67.471 99.5187 67.4081 99.7535 67.2823C99.9883 67.1565 100.187 66.9818 100.349 66.7582V67.3368H100.919V63.4124H100.349V63.9994C100.187 63.7702 99.9869 63.5927 99.7493 63.467C99.5117 63.3412 99.2504 63.2783 98.9653 63.2783C98.5907 63.2783 98.2567 63.3677 97.9632 63.5466C97.6697 63.7255 97.4405 63.9729 97.2756 64.2887C97.1107 64.6046 97.0282 64.9637 97.0282 65.3662C97.0282 65.7743 97.1121 66.1377 97.2798 66.4563C97.4475 66.775 97.6795 67.0237 97.9758 67.2026C98.2721 67.3815 98.6075 67.471 98.982 67.471ZM98.9653 66.9511C98.7025 66.9511 98.4677 66.884 98.2609 66.7498C98.0541 66.6157 97.8919 66.4284 97.7745 66.188C97.6572 65.9476 97.5985 65.6737 97.5985 65.3662C97.5985 65.0644 97.6572 64.7946 97.7745 64.557C97.8919 64.3195 98.0541 64.1336 98.2609 63.9994C98.4677 63.8653 98.7025 63.7982 98.9653 63.7982C99.2336 63.7982 99.4726 63.8653 99.6822 63.9994C99.8918 64.1336 100.055 64.3209 100.173 64.5612C100.29 64.8016 100.349 65.0727 100.349 65.3746C100.349 65.6765 100.29 65.9476 100.173 66.188C100.055 66.4284 99.8918 66.6157 99.6822 66.7498C99.4726 66.884 99.2336 66.9511 98.9653 66.9511ZM102.554 69.0139V66.7498C102.716 66.979 102.916 67.1565 103.154 67.2823C103.391 67.4081 103.653 67.471 103.938 67.471C104.312 67.471 104.646 67.3815 104.94 67.2026C105.233 67.0237 105.463 66.7764 105.627 66.4605C105.792 66.1447 105.875 65.7855 105.875 65.383C105.875 64.9749 105.791 64.6116 105.623 64.2929C105.456 63.9743 105.224 63.7255 104.927 63.5466C104.631 63.3677 104.296 63.2783 103.921 63.2783C103.642 63.2783 103.384 63.3412 103.15 63.467C102.915 63.5927 102.716 63.7674 102.554 63.991V63.4124H101.984V69.0139H102.554ZM103.938 66.9511C103.669 66.9511 103.43 66.884 103.221 66.7498C103.011 66.6157 102.848 66.4284 102.73 66.188C102.613 65.9476 102.554 65.6765 102.554 65.3746C102.554 65.0727 102.613 64.8016 102.73 64.5612C102.848 64.3209 103.011 64.1336 103.221 63.9994C103.43 63.8653 103.669 63.7982 103.938 63.7982C104.201 63.7982 104.435 63.8653 104.642 63.9994C104.849 64.1336 105.011 64.3209 105.129 64.5612C105.246 64.8016 105.305 65.0755 105.305 65.383C105.305 65.6849 105.246 65.9546 105.129 66.1922C105.011 66.4298 104.849 66.6157 104.642 66.7498C104.435 66.884 104.201 66.9511 103.938 66.9511ZM108.399 67.471C108.812 67.471 109.17 67.3885 109.472 67.2236C109.774 67.0587 110.017 66.8309 110.202 66.5402L109.749 66.2383C109.615 66.4619 109.437 66.6366 109.216 66.7624C108.996 66.8882 108.717 66.9511 108.382 66.9511C107.968 66.9511 107.641 66.8085 107.401 66.5234C107.161 66.2383 107.029 65.8945 107.007 65.492H110.235C110.241 65.4361 110.244 65.3551 110.244 65.2488C110.244 64.8799 110.163 64.5459 110 64.2468C109.838 63.9477 109.615 63.7115 109.33 63.5382C109.044 63.3649 108.726 63.2783 108.374 63.2783C107.999 63.2783 107.665 63.3677 107.372 63.5466C107.078 63.7255 106.849 63.9743 106.684 64.2929C106.519 64.6116 106.437 64.9721 106.437 65.3746C106.437 65.7771 106.52 66.1377 106.688 66.4563C106.856 66.775 107.088 67.0237 107.384 67.2026C107.68 67.3815 108.019 67.471 108.399 67.471ZM109.673 65.0224H107.04C107.102 64.6702 107.249 64.3782 107.481 64.1462C107.713 63.9142 108.01 63.7982 108.374 63.7982C108.748 63.7982 109.044 63.9002 109.262 64.1042C109.481 64.3083 109.617 64.6143 109.673 65.0224ZM111.652 67.3368V65.4585C111.652 65.1119 111.715 64.8114 111.841 64.557C111.967 64.3027 112.133 64.1084 112.34 63.9743C112.547 63.8401 112.77 63.773 113.011 63.773C113.15 63.773 113.279 63.801 113.396 63.8569V63.337C113.273 63.2978 113.145 63.2783 113.011 63.2783C112.72 63.2783 112.459 63.3593 112.227 63.5215C111.995 63.6836 111.803 63.91 111.652 64.2007V63.4124H111.082V67.3368H111.652ZM118.059 67.471C118.517 67.471 118.913 67.3564 119.245 67.1272C119.578 66.898 119.845 66.5653 120.046 66.1293L119.518 65.8107C119.328 66.1852 119.122 66.4605 118.901 66.6366C118.681 66.8127 118.372 66.9008 117.975 66.9008C117.656 66.9008 117.377 66.8043 117.136 66.6115C116.896 66.4186 116.711 66.1405 116.583 65.7771C116.454 65.4138 116.39 64.9833 116.39 64.4858C116.39 63.7255 116.531 63.1315 116.814 62.7039C117.096 62.2762 117.486 62.0624 117.983 62.0624C118.33 62.0624 118.623 62.1337 118.864 62.2762C119.104 62.4188 119.314 62.655 119.493 62.9848L119.996 62.6913C119.806 62.3112 119.542 62.0163 119.203 61.8066C118.865 61.597 118.458 61.4922 117.983 61.4922C117.519 61.4922 117.118 61.611 116.78 61.8486C116.442 62.0862 116.182 62.43 116 62.88C115.818 63.33 115.728 63.8681 115.728 64.4942C115.728 65.1147 115.821 65.6471 116.009 66.0916C116.196 66.536 116.464 66.877 116.814 67.1146C117.163 67.3522 117.578 67.471 118.059 67.471ZM122.578 67.471C122.953 67.471 123.287 67.3815 123.58 67.2026C123.874 67.0237 124.103 66.775 124.268 66.4563C124.433 66.1377 124.515 65.7771 124.515 65.3746C124.515 64.9721 124.432 64.6116 124.264 64.2929C124.096 63.9743 123.864 63.7255 123.568 63.5466C123.272 63.3677 122.936 63.2783 122.562 63.2783C122.187 63.2783 121.853 63.3677 121.56 63.5466C121.266 63.7255 121.037 63.9729 120.872 64.2887C120.707 64.6046 120.625 64.9637 120.625 65.3662C120.625 65.7687 120.709 66.1307 120.876 66.4521C121.044 66.7736 121.276 67.0237 121.572 67.2026C121.868 67.3815 122.204 67.471 122.578 67.471ZM122.562 66.9511C122.299 66.9511 122.064 66.884 121.857 66.7498C121.65 66.6157 121.488 66.4284 121.371 66.188C121.254 65.9476 121.195 65.6737 121.195 65.3662C121.195 65.0644 121.254 64.7946 121.371 64.557C121.488 64.3195 121.65 64.1336 121.857 63.9994C122.064 63.8653 122.299 63.7982 122.562 63.7982C122.83 63.7982 123.069 63.8653 123.279 63.9994C123.488 64.1336 123.652 64.3209 123.769 64.5612C123.887 64.8016 123.945 65.0727 123.945 65.3746C123.945 65.6765 123.887 65.9476 123.769 66.188C123.652 66.4284 123.488 66.6157 123.279 66.7498C123.069 66.884 122.83 66.9511 122.562 66.9511ZM125.891 67.3368V65.3746C125.891 64.8939 125.976 64.5109 126.146 64.2258C126.317 63.9407 126.573 63.7982 126.914 63.7982C127.165 63.7982 127.369 63.889 127.526 64.0707C127.682 64.2524 127.761 64.5501 127.761 64.9637V67.3368H128.331V65.1231C128.359 64.715 128.458 64.3921 128.628 64.1546C128.799 63.917 129.038 63.7982 129.345 63.7982C129.597 63.7982 129.801 63.889 129.958 64.0707C130.114 64.2524 130.192 64.5501 130.192 64.9637V67.3368H130.763V64.7122C130.763 64.265 130.642 63.9142 130.402 63.6598C130.162 63.4055 129.86 63.2783 129.496 63.2783C129.217 63.2783 128.971 63.3565 128.758 63.5131C128.546 63.6696 128.378 63.8876 128.255 64.1671C128.171 63.882 128.023 63.6626 127.811 63.5089C127.598 63.3551 127.35 63.2783 127.065 63.2783C126.807 63.2783 126.58 63.3426 126.381 63.4711C126.183 63.5997 126.019 63.7842 125.891 64.0246V63.4124H125.32V67.3368H125.891ZM132.356 69.0139V66.7498C132.518 66.979 132.718 67.1565 132.955 67.2823C133.193 67.4081 133.454 67.471 133.739 67.471C134.114 67.471 134.448 67.3815 134.741 67.2026C135.035 67.0237 135.264 66.7764 135.429 66.4605C135.594 66.1447 135.676 65.7855 135.676 65.383C135.676 64.9749 135.593 64.6116 135.425 64.2929C135.257 63.9743 135.025 63.7255 134.729 63.5466C134.433 63.3677 134.097 63.2783 133.723 63.2783C133.443 63.2783 133.186 63.3412 132.951 63.467C132.716 63.5927 132.518 63.7674 132.356 63.991V63.4124H131.786V69.0139H132.356ZM133.739 66.9511C133.471 66.9511 133.232 66.884 133.022 66.7498C132.813 66.6157 132.649 66.4284 132.532 66.188C132.414 65.9476 132.356 65.6765 132.356 65.3746C132.356 65.0727 132.414 64.8016 132.532 64.5612C132.649 64.3209 132.813 64.1336 133.022 63.9994C133.232 63.8653 133.471 63.7982 133.739 63.7982C134.002 63.7982 134.237 63.8653 134.444 63.9994C134.651 64.1336 134.813 64.3209 134.93 64.5612C135.047 64.8016 135.106 65.0755 135.106 65.383C135.106 65.6849 135.047 65.9546 134.93 66.1922C134.813 66.4298 134.651 66.6157 134.444 66.7498C134.237 66.884 134.002 66.9511 133.739 66.9511ZM138.192 67.471C138.471 67.471 138.729 67.4081 138.963 67.2823C139.198 67.1565 139.397 66.9818 139.559 66.7582V67.3368H140.129V63.4124H139.559V63.9994C139.397 63.7702 139.197 63.5927 138.959 63.467C138.722 63.3412 138.46 63.2783 138.175 63.2783C137.801 63.2783 137.467 63.3677 137.173 63.5466C136.88 63.7255 136.65 63.9729 136.486 64.2887C136.321 64.6046 136.238 64.9637 136.238 65.3662C136.238 65.7743 136.322 66.1377 136.49 66.4563C136.657 66.775 136.889 67.0237 137.186 67.2026C137.482 67.3815 137.817 67.471 138.192 67.471ZM138.175 66.9511C137.912 66.9511 137.678 66.884 137.471 66.7498C137.264 66.6157 137.102 66.4284 136.984 66.188C136.867 65.9476 136.808 65.6737 136.808 65.3662C136.808 65.0644 136.867 64.7946 136.984 64.557C137.102 64.3195 137.264 64.1336 137.471 63.9994C137.678 63.8653 137.912 63.7982 138.175 63.7982C138.444 63.7982 138.683 63.8653 138.892 63.9994C139.102 64.1336 139.265 64.3209 139.383 64.5612C139.5 64.8016 139.559 65.0727 139.559 65.3746C139.559 65.6765 139.5 65.9476 139.383 66.188C139.265 66.4284 139.102 66.6157 138.892 66.7498C138.683 66.884 138.444 66.9511 138.175 66.9511ZM141.756 67.3368V65.3746C141.756 64.8939 141.856 64.5109 142.058 64.2258C142.259 63.9407 142.561 63.7982 142.963 63.7982C143.656 63.7982 144.003 64.1867 144.003 64.9637V67.3368H144.573V64.7122C144.573 64.4159 144.505 64.1587 144.368 63.9407C144.231 63.7227 144.046 63.5578 143.814 63.446C143.582 63.3342 143.329 63.2783 143.055 63.2783C142.765 63.2783 142.509 63.3468 142.288 63.4837C142.067 63.6207 141.89 63.8149 141.756 64.0665V63.4124H141.186V67.3368H141.756ZM146.804 69.0139L148.925 63.4124H148.389L147.139 66.666L145.839 63.4124H145.244L146.854 67.4123L146.234 69.0139H146.804Z" fill="white"/>
<path fill-rule="evenodd" clip-rule="evenodd" d="M42.0317 37.0557V64.2607C39.879 65.5864 37.3163 66.6785 34.4845 67.3953C32.1464 67.9879 29.8488 68.2678 27.7011 68.2678C25.6304 68.2678 23.6992 68.0079 22 67.5151V40.3102C22.0009 40.3102 22.0025 40.3109 22.0034 40.3109C22.6361 40.494 23.3008 40.6452 23.9935 40.7627C24.6345 40.8716 25.2991 40.9517 25.9836 41.001C26.5435 41.0428 27.1166 41.0637 27.7011 41.0637C29.8497 41.0637 32.1464 40.7828 34.4845 40.1909C37.3163 39.4732 39.879 38.382 42.0317 37.0557ZM38.051 43.3011C37.8827 43.3584 37.7136 43.4145 37.5436 43.4693L38.051 43.4691L38.051 43.3011Z" fill="white"/>
<path fill-rule="evenodd" clip-rule="evenodd" d="M49.486 31V61.0474C47.083 62.5116 44.2222 63.7178 41.0612 64.5094C38.4513 65.164 35.8864 65.4731 33.489 65.4731C31.1776 65.4731 29.0218 65.186 27.125 64.6417V34.5946C27.126 34.5946 27.1278 34.5953 27.1288 34.5953C27.8351 34.7975 28.577 34.9645 29.3503 35.0943C30.0658 35.2147 30.8077 35.3031 31.5719 35.3576C32.1968 35.4037 32.8366 35.4268 33.489 35.4268C35.8875 35.4268 38.4513 35.1166 41.0612 34.4628C44.2222 33.6701 47.083 32.4649 49.486 31Z" fill="white"/>
</svg>
