<svg width="67" height="65" viewBox="0 0 67 65" fill="none" xmlns="http://www.w3.org/2000/svg">
<path fill-rule="evenodd" clip-rule="evenodd" d="M5.91162 34.036C7.97262 25.656 7.83765 17.586 8.08465 9.08603C8.13265 7.42603 6.82864 6.04594 5.17364 5.99594C3.51764 5.94594 2.13561 7.25598 2.08661 8.91598C1.85261 16.976 2.04163 24.6459 0.0856304 32.6059C-0.310369 34.2159 0.674652 35.8459 2.28265 36.2359C3.88965 36.6359 5.51662 35.646 5.91162 34.036Z" fill="#649969"/>
<path fill-rule="evenodd" clip-rule="evenodd" d="M23.4234 50.2754C37.4054 37.4954 50.5794 21.0554 59.7874 4.45542C60.5904 3.00542 60.0674 1.17534 58.6194 0.375343C57.1714 -0.424656 55.3434 0.0953865 54.5404 1.54539C45.6364 17.5954 32.8954 33.4954 19.3754 45.8454C18.1534 46.9654 18.0684 48.8654 19.1854 50.0854C20.3024 51.3054 22.2014 51.3954 23.4234 50.2754Z" fill="#649969"/>
<path fill-rule="evenodd" clip-rule="evenodd" d="M26.9647 64.2355C39.7527 66.3455 52.9337 62.7456 64.5617 57.6556C66.0787 56.9856 66.7707 55.2156 66.1077 53.7056C65.4437 52.1856 63.6727 51.4956 62.1557 52.1556C51.5657 56.7956 39.5887 60.2356 27.9417 58.3156C26.3077 58.0456 24.7627 59.1556 24.4937 60.7856C24.2237 62.4156 25.3317 63.9655 26.9647 64.2355Z" fill="#649969"/>
</svg>
