<svg width="256" height="229" viewBox="0 0 256 229" fill="none" xmlns="http://www.w3.org/2000/svg">
<mask id="mask0_1_2702" style="mask-type:alpha" maskUnits="userSpaceOnUse" x="-1" y="0" width="257" height="229">
<path fill-rule="evenodd" clip-rule="evenodd" d="M140.603 228.754C123.614 231.026 109.144 216.879 92.2319 214.093C63.9282 209.43 27.0391 228.31 7.94868 206.9C-9.47061 187.364 5.42511 153.52 17.5287 130.312C27.904 110.418 51.0759 102.194 69.3476 89.1728C80.7094 81.0758 95.5188 78.6535 104.726 68.1708C120.394 50.3304 119.762 19.419 140.603 8.04168C161.13 -3.16413 190.812 -3.08359 209.504 10.971C228.515 25.2656 224.096 54.9866 232.587 77.2051C239.57 95.4781 260.342 111.463 255.11 130.312C249.537 150.388 222.04 154.148 207.176 168.748C197.075 178.669 192.556 192.603 182.039 202.082C169.627 213.271 157.166 226.539 140.603 228.754Z" fill="#C4C4C4"/>
</mask>
<g mask="url(#mask0_1_2702)">
<path fill-rule="evenodd" clip-rule="evenodd" d="M140.603 228.754C123.614 231.026 109.144 216.879 92.2319 214.093C63.9282 209.43 27.0391 228.31 7.94868 206.9C-9.47061 187.364 5.42511 153.52 17.5287 130.312C27.904 110.418 51.0759 102.194 69.3476 89.1728C80.7094 81.0758 95.5188 78.6535 104.726 68.1708C120.394 50.3304 119.762 19.419 140.603 8.0417C161.13 -3.16411 190.812 -3.08357 209.504 10.9711C228.515 25.2656 224.096 54.9866 232.587 77.2051C239.57 95.4781 260.342 111.463 255.11 130.312C249.537 150.388 222.04 154.148 207.176 168.748C197.075 178.669 192.556 192.603 182.039 202.082C169.627 213.271 157.166 226.539 140.603 228.754Z" fill="#649969"/>
<path fill-rule="evenodd" clip-rule="evenodd" d="M124.888 213.057C107.897 215.328 93.4248 201.185 76.5104 198.399C48.2028 193.737 11.3088 212.613 -7.78429 191.208C-25.206 171.677 -10.3082 137.841 1.79701 114.639C12.1738 94.7497 35.3488 86.5277 53.623 73.5095C64.9863 65.4144 79.7978 62.9928 89.0057 52.5126C104.677 34.6766 104.044 3.77275 124.888 -7.60177C145.418 -18.8048 175.104 -18.7243 193.799 -4.67312C212.812 9.61791 208.392 39.3317 216.884 61.5447C223.868 79.8133 244.643 95.7942 239.41 114.639C233.837 134.71 206.336 138.469 191.47 153.065C181.368 162.983 176.848 176.915 166.33 186.391C153.916 197.577 141.454 210.842 124.888 213.057Z" stroke="#F1DFD5" stroke-width="4.30886"/>
<path fill-rule="evenodd" clip-rule="evenodd" d="M106.683 177.766C91.8917 179.743 79.2934 167.431 64.569 165.007C39.9264 160.949 7.80908 177.379 -8.81196 158.747C-23.978 141.745 -11.0091 112.292 -0.471159 92.0952C8.56209 74.7824 28.7366 67.6253 44.6448 56.2933C54.5369 49.2467 67.4307 47.1387 75.4465 38.016C89.0884 22.4901 88.5378 -4.41094 106.683 -14.3122C124.555 -24.0642 150.398 -23.9941 166.672 -11.7629C183.224 0.677143 179.376 26.5423 186.768 45.8782C192.848 61.7806 210.933 75.6915 206.378 92.0952C201.526 109.567 177.586 112.839 164.644 125.545C155.85 134.178 151.915 146.305 142.76 154.554C131.952 164.291 121.104 175.838 106.683 177.766Z" stroke="#F1DFD5" stroke-width="4.30886"/>
<path fill-rule="evenodd" clip-rule="evenodd" d="M82.5604 147.699C69.4191 149.46 58.2261 138.496 45.1441 136.336C23.2503 132.722 -5.28444 147.355 -20.0515 130.761C-33.5258 115.62 -22.0035 89.3889 -12.6411 71.4019C-4.61543 55.9833 13.3087 49.6093 27.4424 39.517C36.2311 33.2414 47.6866 31.3641 54.8083 23.2395C66.9285 9.41227 66.4393 -14.5455 82.5604 -23.3635C98.4385 -32.0485 121.399 -31.9861 135.858 -21.0931C150.563 -10.0142 147.145 13.0211 153.713 30.2415C159.114 44.404 175.182 56.793 171.135 71.4019C166.824 86.9619 145.555 89.876 134.057 101.192C126.244 108.881 122.747 119.681 114.613 127.027C105.011 135.699 95.3727 145.982 82.5604 147.699Z" stroke="#F1DFD5" stroke-width="4.30886"/>
</g>
</svg>
