<svg width="130" height="32" viewBox="0 0 130 32" fill="none" xmlns="http://www.w3.org/2000/svg">
<path d="M41.4312 26.1175V22.2242L52.1376 10.2624H41.4312V6.36914H57.3991V10.2624L46.6927 22.2242H57.3991V26.1175H41.4312Z" fill="#04091E"/>
<path d="M65.8345 26.4842C64.5367 26.4842 63.3518 26.1504 62.2798 25.4827C61.2171 24.815 60.3661 23.9216 59.7266 22.8026C59.0966 21.6741 58.7815 20.4281 58.7815 19.0645C58.7815 18.0301 58.9649 17.0661 59.3317 16.1728C59.6984 15.27 60.2015 14.4801 60.841 13.803C61.4899 13.1165 62.2422 12.5805 63.0979 12.1949C63.9537 11.8093 64.8659 11.6166 65.8345 11.6166C67.1322 11.6166 68.3124 11.9504 69.3751 12.6181C70.4471 13.2858 71.2982 14.1838 71.9283 15.3123C72.5677 16.4408 72.8875 17.6915 72.8875 19.0645C72.8875 20.0895 72.7041 21.0487 72.3373 21.9421C71.9706 22.8355 71.4628 23.6254 70.8139 24.3119C70.1744 24.989 69.4268 25.5203 68.571 25.9059C67.7247 26.2914 66.8125 26.4842 65.8345 26.4842ZM65.8345 22.591C66.4363 22.591 66.9771 22.4311 67.4567 22.1114C67.9363 21.7822 68.3124 21.3497 68.5852 20.8136C68.8579 20.2776 68.9942 19.6946 68.9942 19.0645C68.9942 18.4156 68.8485 17.8232 68.5569 17.2871C68.2748 16.7417 67.894 16.3091 67.4144 15.9894C66.9348 15.6697 66.4081 15.5098 65.8345 15.5098C65.242 15.5098 64.706 15.6744 64.2264 16.0035C63.7468 16.3326 63.366 16.7652 63.0838 17.3012C62.8111 17.8373 62.6748 18.425 62.6748 19.0645C62.6748 19.7322 62.8158 20.334 63.0979 20.8701C63.3895 21.3967 63.775 21.8152 64.2546 22.1255C64.7342 22.4358 65.2609 22.591 65.8345 22.591Z" fill="#04091E"/>
<path d="M82.5943 26.4842C81.4847 26.4842 80.422 26.3102 79.4064 25.9623C78.4002 25.6143 77.5162 25.1112 76.7545 24.4529C76.0022 23.7946 75.4614 23.0141 75.1323 22.1113L78.7857 20.7572C78.8986 21.0769 79.1337 21.3778 79.491 21.6599C79.8484 21.9327 80.2951 22.1583 80.8311 22.337C81.3671 22.5063 81.9549 22.5909 82.5943 22.5909C83.2056 22.5909 83.7792 22.5016 84.3153 22.3229C84.8607 22.1348 85.298 21.8762 85.6271 21.5471C85.9657 21.2179 86.1349 20.8324 86.1349 20.3904C86.1349 19.9484 85.961 19.5817 85.613 19.2901C85.2651 18.9986 84.8184 18.7682 84.2729 18.5989C83.7275 18.4203 83.168 18.2839 82.5943 18.1899C81.1743 17.983 79.9001 17.6491 78.7716 17.1884C77.6526 16.7182 76.7686 16.074 76.1197 15.2558C75.4708 14.4283 75.1464 13.3797 75.1464 12.1102C75.1464 10.8877 75.4896 9.82035 76.1761 8.90816C76.872 7.99598 77.7842 7.28598 78.9127 6.77816C80.0506 6.27035 81.2778 6.01644 82.5943 6.01644C83.6852 6.01644 84.7384 6.19042 85.7541 6.53836C86.7697 6.88631 87.6537 7.38942 88.406 8.0477C89.1677 8.70598 89.7131 9.49591 90.0423 10.4175L86.3888 11.7435C86.276 11.4237 86.0409 11.1275 85.6835 10.8548C85.3262 10.5821 84.8795 10.3611 84.3435 10.1918C83.8075 10.0225 83.2244 9.9379 82.5943 9.9379C81.9925 9.92849 81.4188 10.0178 80.8734 10.2059C80.3374 10.394 79.8954 10.6526 79.5475 10.9817C79.2089 11.3109 79.0396 11.687 79.0396 12.1102C79.0396 12.665 79.1995 13.0835 79.5192 13.3656C79.8484 13.6478 80.281 13.8499 80.817 13.9722C81.353 14.0944 81.9455 14.2026 82.5943 14.2966C83.9297 14.4941 85.1616 14.8468 86.2901 15.3546C87.4186 15.853 88.3214 16.5207 88.9984 17.3576C89.6849 18.1852 90.0282 19.1961 90.0282 20.3904C90.0282 21.6129 89.6849 22.6803 88.9984 23.5925C88.3119 24.5046 87.4045 25.2146 86.276 25.7224C85.1475 26.2303 83.9203 26.4842 82.5943 26.4842Z" fill="#34CAA5"/>
<path d="M102.987 12.0115H106.881V26.1174H102.973L102.79 24.6504C102.423 25.1958 101.953 25.6378 101.379 25.9764C100.806 26.3149 100.133 26.4842 99.3621 26.4842C98.3089 26.4842 97.3262 26.2867 96.414 25.8917C95.5018 25.4968 94.6978 24.9513 94.0019 24.2554C93.306 23.5595 92.7605 22.7555 92.3656 21.8433C91.98 20.9217 91.7872 19.9343 91.7872 18.8811C91.7872 17.8748 91.9706 16.9344 92.3374 16.0599C92.7041 15.1853 93.2213 14.4142 93.889 13.7465C94.5567 13.0788 95.3231 12.5569 96.1883 12.1807C97.0629 11.8046 98.0032 11.6165 99.0095 11.6165C99.8746 11.6165 100.65 11.7999 101.337 12.1666C102.033 12.5334 102.639 12.9989 103.157 13.5631L102.987 12.0115ZM99.2634 22.7461C99.9028 22.7461 100.481 22.5815 100.998 22.2524C101.516 21.9232 101.925 21.4813 102.226 20.9264C102.527 20.3622 102.677 19.7415 102.677 19.0644C102.677 18.378 102.527 17.7573 102.226 17.2025C101.925 16.6476 101.516 16.2056 100.998 15.8765C100.481 15.5474 99.9028 15.3828 99.2634 15.3828C98.6145 15.3828 98.0268 15.5474 97.5001 15.8765C96.9735 16.2056 96.555 16.6523 96.2447 17.2166C95.9344 17.7714 95.7792 18.3874 95.7792 19.0644C95.7792 19.7415 95.9344 20.3622 96.2447 20.9264C96.5644 21.4813 96.9876 21.9232 97.5142 22.2524C98.0409 22.5815 98.6239 22.7461 99.2634 22.7461Z" fill="#34CAA5"/>
<path d="M109.743 26.1174V4.9585H113.636V26.1174H109.743Z" fill="#34CAA5"/>
<path d="M122.947 26.4842C121.649 26.4842 120.464 26.1503 119.392 25.4826C118.33 24.815 117.479 23.9169 116.839 22.7884C116.209 21.6599 115.894 20.4139 115.894 19.0503C115.894 18.0253 116.077 17.0661 116.444 16.1727C116.811 15.2699 117.314 14.48 117.954 13.8029C118.602 13.1164 119.355 12.5804 120.21 12.1948C121.066 11.8093 121.978 11.6165 122.947 11.6165C124.066 11.6165 125.086 11.8563 126.008 12.3359C126.939 12.8155 127.724 13.4691 128.364 14.2966C129.013 15.1242 129.473 16.0599 129.746 17.1037C130.028 18.1476 130.075 19.2337 129.887 20.3622H120.098C120.22 20.776 120.408 21.1521 120.662 21.4907C120.925 21.8198 121.245 22.0831 121.621 22.2806C122.007 22.4781 122.449 22.5815 122.947 22.5909C123.436 22.6003 123.887 22.4875 124.301 22.2524C124.715 22.0173 125.068 21.7023 125.359 21.3073L129.337 22.2242C128.763 23.4749 127.908 24.4999 126.77 25.2993C125.632 26.0892 124.358 26.4842 122.947 26.4842ZM119.957 17.4846H125.952C125.829 17.0144 125.622 16.5912 125.331 16.215C125.039 15.8389 124.687 15.5427 124.273 15.3264C123.869 15.1101 123.427 15.0019 122.947 15.0019C122.477 15.0019 122.035 15.1101 121.621 15.3264C121.217 15.5427 120.869 15.8389 120.577 16.215C120.295 16.5818 120.088 17.005 119.957 17.4846Z" fill="#34CAA5"/>
<path d="M4.13751 22.3472L19.2387 22.3472L32.2422 11.8586L16.4398 11.8586L4.13751 22.3472Z" fill="#34CAA5"/>
<path d="M4.06177 22.4052L4.06177 31.1553L32.2244 31.1553L32.2244 22.3588L19.2325 22.353L19.2383 22.3472L4.1371 22.3472L4.06177 22.4052Z" fill="#04091E"/>
<path d="M3.10059 2.29147L3.10059 4.52246L5.33158 4.52246L5.33158 2.29147L3.10059 2.29147Z" fill="#34CAA5"/>
<path d="M1.28699 0.471943L1.28699 2.2915L3.10655 2.2915L3.10655 0.471943L1.28699 0.471943Z" fill="#04091E"/>
<path d="M-5.62322e-08 2.29168L0 3.57812L1.28644 3.57812L1.28644 2.29168L-5.62322e-08 2.29168Z" fill="#34CAA5"/>
<path d="M6.5531 3.05061L6.5531 5.948L9.45049 5.948L9.45049 3.05061L6.5531 3.05061Z" fill="#04091E"/>
<path d="M12.0006 5.94797L9.45091 5.94797L9.45091 8.78741L6.55352 8.78741L6.55352 5.94797L4.06177 5.94797L4.06177 11.8007L16.4974 11.8007L16.4394 11.8586L32.2418 11.8586L32.2244 3.05058L12.0006 3.05058L12.0006 5.94797Z" fill="#04091E"/>
</svg>
