<svg width="343" height="214" viewBox="0 0 343 214" fill="none" xmlns="http://www.w3.org/2000/svg">
<path d="M0 212C1.93981 194.347 9.14649 177.958 23.8623 167.475C30.5624 162.702 36.8548 158.968 44.4745 155.96C50.9603 153.399 58.5069 152.567 65.3434 151.524C81.9414 148.992 98.6698 148.349 115.292 146.15C130.485 144.14 145.677 143.156 160.75 140.265C177.427 137.066 191.851 131.303 207.063 123.717C222.8 115.87 238.661 108.36 251.709 96.3367C265.885 83.2748 279.569 68.5427 290.667 52.7924C310.595 24.51 326.581 -6.42963 333.645 -40.4804C337.161 -57.4318 341 -74.5962 341 -92" stroke="white" stroke-opacity="0.14" stroke-width="3" stroke-linecap="round"/>
</svg>
