<svg width="96" height="16" viewBox="0 0 96 16" fill="none" xmlns="http://www.w3.org/2000/svg">
<path d="M6.95816 0.741543C7.27942 -0.247181 8.6782 -0.247181 8.99945 0.741543L10.1473 4.2742C10.291 4.71637 10.703 5.01575 11.1679 5.01575H14.8824C15.922 5.01575 16.3542 6.34607 15.5132 6.95713L12.5081 9.14044C12.132 9.41371 11.9746 9.89811 12.1183 10.3403L13.2661 13.8729C13.5874 14.8617 12.4557 15.6838 11.6147 15.0728L8.6096 12.8895C8.23347 12.6162 7.72415 12.6162 7.34801 12.8895L4.34295 15.0728C3.5019 15.6838 2.37026 14.8617 2.69151 13.8729L3.83935 10.3403C3.98302 9.89811 3.82563 9.41371 3.44949 9.14044L0.444434 6.95713C-0.396625 6.34607 0.0356224 5.01575 1.07523 5.01575H4.78969C5.25461 5.01575 5.66666 4.71637 5.81033 4.2742L6.95816 0.741543Z" fill="#F59E0B"/>
<path d="M26.9152 0.741543C27.2364 -0.247181 28.6352 -0.247181 28.9565 0.741543L30.1043 4.2742C30.248 4.71637 30.66 5.01575 31.125 5.01575H34.8394C35.879 5.01575 36.3113 6.34607 35.4702 6.95713L32.4652 9.14044C32.089 9.41371 31.9316 9.89811 32.0753 10.3403L33.2231 13.8729C33.5444 14.8617 32.4128 15.6838 31.5717 15.0728L28.5666 12.8895C28.1905 12.6162 27.6812 12.6162 27.305 12.8895L24.3 15.0728C23.4589 15.6838 22.3273 14.8617 22.6485 13.8729L23.7964 10.3403C23.94 9.89811 23.7827 9.41371 23.4065 9.14044L20.4015 6.95713C19.5604 6.34607 19.9927 5.01575 21.0323 5.01575H24.7467C25.2116 5.01575 25.6237 4.71637 25.7674 4.2742L26.9152 0.741543Z" fill="#F59E0B"/>
<path d="M46.8722 0.741543C47.1935 -0.247181 48.5923 -0.247181 48.9135 0.741543L50.0613 4.2742C50.205 4.71637 50.6171 5.01575 51.082 5.01575H54.7965C55.8361 5.01575 56.2683 6.34607 55.4272 6.95713L52.4222 9.14044C52.0461 9.41371 51.8887 9.89811 52.0323 10.3403L53.1802 13.8729C53.5014 14.8617 52.3698 15.6838 51.5287 15.0728L48.5237 12.8895C48.1475 12.6162 47.6382 12.6162 47.2621 12.8895L44.257 15.0728C43.416 15.6838 42.2843 14.8617 42.6056 13.8729L43.7534 10.3403C43.8971 9.89811 43.7397 9.41371 43.3636 9.14044L40.3585 6.95713C39.5174 6.34607 39.9497 5.01575 40.9893 5.01575H44.7037C45.1687 5.01575 45.5807 4.71637 45.7244 4.2742L46.8722 0.741543Z" fill="#F59E0B"/>
<path d="M66.8332 0.741543C67.1544 -0.247181 68.5532 -0.247181 68.8745 0.741543L70.0223 4.2742C70.166 4.71637 70.578 5.01575 71.0429 5.01575H74.7574C75.797 5.01575 76.2292 6.34607 75.3882 6.95713L72.3831 9.14044C72.007 9.41371 71.8496 9.89811 71.9933 10.3403L73.1411 13.8729C73.4624 14.8617 72.3307 15.6838 71.4897 15.0728L68.4846 12.8895C68.1085 12.6162 67.5991 12.6162 67.223 12.8895L64.218 15.0728C63.3769 15.6838 62.2453 14.8617 62.5665 13.8729L63.7143 10.3403C63.858 9.89811 63.7006 9.41371 63.3245 9.14044L60.3194 6.95713C59.4784 6.34607 59.9106 5.01575 60.9502 5.01575H64.6647C65.1296 5.01575 65.5417 4.71637 65.6853 4.2742L66.8332 0.741543Z" fill="#F59E0B"/>
<path d="M86.7863 0.741543C87.1075 -0.247181 88.5063 -0.247181 88.8276 0.741543L89.9754 4.2742C90.1191 4.71637 90.5311 5.01575 90.9961 5.01575H94.7105C95.7501 5.01575 96.1824 6.34607 95.3413 6.95713L92.3362 9.14044C91.9601 9.41371 91.8027 9.89811 91.9464 10.3403L93.0942 13.8729C93.4155 14.8617 92.2838 15.6838 91.4428 15.0728L88.4377 12.8895C88.0616 12.6162 87.5523 12.6162 87.1761 12.8895L84.1711 15.0728C83.33 15.6838 82.1984 14.8617 82.5196 13.8729L83.6675 10.3403C83.8111 9.89811 83.6538 9.41371 83.2776 9.14044L80.2726 6.95713C79.4315 6.34607 79.8637 5.01575 80.9034 5.01575H84.6178C85.0827 5.01575 85.4948 4.71637 85.6385 4.2742L86.7863 0.741543Z" fill="#F59E0B"/>
</svg>
