<svg width="19" height="18" viewBox="0 0 19 18" fill="none" xmlns="http://www.w3.org/2000/svg">
<path d="M15.95 9.00005C15.95 12.5623 13.0622 15.45 9.5 15.45C5.93777 15.45 3.05 12.5623 3.05 9.00005C3.05 5.43781 5.93777 2.55005 9.5 2.55005C13.0622 2.55005 15.95 5.43781 15.95 9.00005ZM9.51526 5.82717C9.00895 5.48963 8.35795 5.45816 7.82144 5.74529C7.28493 6.03242 6.95 6.59154 6.95 7.20005V10.8001C6.95 11.4086 7.28493 11.9677 7.82144 12.2548C8.35795 12.5419 9.00894 12.5105 9.51526 12.1729L12.2153 10.3729C12.6743 10.0669 12.95 9.55173 12.95 9.00005C12.95 8.44837 12.6743 7.93319 12.2153 7.62717L9.51526 5.82717Z" fill="#12141D" stroke="#12141D" stroke-width="1.5"/>
</svg>
